<mxfile host="Electron" modified="2024-03-30T12:00:23.147Z" agent="Mozilla/5.0 (Macintosh; Intel Mac OS X 10_15_7) AppleWebKit/537.36 (KHTML, like Gecko) draw.io/23.1.5 Chrome/120.0.6099.109 Electron/28.1.0 Safari/537.36" etag="KEiRZNJjwJakK_MkgQHL" version="23.1.5" type="device">
  <diagram name="Page-1" id="kyJiQJ0VgdOWxfjIkgUi">
    <mxGraphModel dx="1642" dy="1193" grid="1" gridSize="10" guides="1" tooltips="1" connect="1" arrows="1" fold="1" page="0" pageScale="1" pageWidth="1169" pageHeight="827" math="0" shadow="0">
      <root>
        <mxCell id="0" />
        <mxCell id="1" parent="0" />
        <mxCell id="Po-LZy7qsp5AbImnbOL2-36" value="" style="edgeStyle=orthogonalEdgeStyle;rounded=0;orthogonalLoop=1;jettySize=auto;html=1;strokeColor=default;endArrow=none;endFill=0;" parent="1" source="Po-LZy7qsp5AbImnbOL2-1" target="Po-LZy7qsp5AbImnbOL2-35" edge="1">
          <mxGeometry relative="1" as="geometry" />
        </mxCell>
        <object label="User" id="Po-LZy7qsp5AbImnbOL2-1">
          <mxCell style="swimlane;fontStyle=0;childLayout=stackLayout;horizontal=1;startSize=26;horizontalStack=0;resizeParent=1;resizeParentMax=0;resizeLast=0;collapsible=1;marginBottom=0;align=center;fontSize=14;" parent="1" vertex="1">
            <mxGeometry x="110" y="130" width="160" height="236" as="geometry" />
          </mxCell>
        </object>
        <mxCell id="Po-LZy7qsp5AbImnbOL2-2" value="id" style="text;strokeColor=none;fillColor=none;spacingLeft=4;spacingRight=4;overflow=hidden;rotatable=0;points=[[0,0.5],[1,0.5]];portConstraint=eastwest;fontSize=12;whiteSpace=wrap;html=1;" parent="Po-LZy7qsp5AbImnbOL2-1" vertex="1">
          <mxGeometry y="26" width="160" height="30" as="geometry" />
        </mxCell>
        <mxCell id="Po-LZy7qsp5AbImnbOL2-3" value="username" style="text;strokeColor=none;fillColor=none;spacingLeft=4;spacingRight=4;overflow=hidden;rotatable=0;points=[[0,0.5],[1,0.5]];portConstraint=eastwest;fontSize=12;whiteSpace=wrap;html=1;" parent="Po-LZy7qsp5AbImnbOL2-1" vertex="1">
          <mxGeometry y="56" width="160" height="30" as="geometry" />
        </mxCell>
        <mxCell id="Po-LZy7qsp5AbImnbOL2-4" value="email" style="text;strokeColor=none;fillColor=none;spacingLeft=4;spacingRight=4;overflow=hidden;rotatable=0;points=[[0,0.5],[1,0.5]];portConstraint=eastwest;fontSize=12;whiteSpace=wrap;html=1;" parent="Po-LZy7qsp5AbImnbOL2-1" vertex="1">
          <mxGeometry y="86" width="160" height="30" as="geometry" />
        </mxCell>
        <mxCell id="Po-LZy7qsp5AbImnbOL2-5" value="password" style="text;strokeColor=none;fillColor=none;spacingLeft=4;spacingRight=4;overflow=hidden;rotatable=0;points=[[0,0.5],[1,0.5]];portConstraint=eastwest;fontSize=12;whiteSpace=wrap;html=1;" parent="Po-LZy7qsp5AbImnbOL2-1" vertex="1">
          <mxGeometry y="116" width="160" height="30" as="geometry" />
        </mxCell>
        <mxCell id="Po-LZy7qsp5AbImnbOL2-7" value="about" style="text;strokeColor=none;fillColor=none;spacingLeft=4;spacingRight=4;overflow=hidden;rotatable=0;points=[[0,0.5],[1,0.5]];portConstraint=eastwest;fontSize=12;whiteSpace=wrap;html=1;" parent="Po-LZy7qsp5AbImnbOL2-1" vertex="1">
          <mxGeometry y="146" width="160" height="30" as="geometry" />
        </mxCell>
        <mxCell id="Po-LZy7qsp5AbImnbOL2-8" value="header" style="text;strokeColor=none;fillColor=none;spacingLeft=4;spacingRight=4;overflow=hidden;rotatable=0;points=[[0,0.5],[1,0.5]];portConstraint=eastwest;fontSize=12;whiteSpace=wrap;html=1;" parent="Po-LZy7qsp5AbImnbOL2-1" vertex="1">
          <mxGeometry y="176" width="160" height="30" as="geometry" />
        </mxCell>
        <mxCell id="Po-LZy7qsp5AbImnbOL2-9" value="avatar" style="text;strokeColor=none;fillColor=none;spacingLeft=4;spacingRight=4;overflow=hidden;rotatable=0;points=[[0,0.5],[1,0.5]];portConstraint=eastwest;fontSize=12;whiteSpace=wrap;html=1;" parent="Po-LZy7qsp5AbImnbOL2-1" vertex="1">
          <mxGeometry y="206" width="160" height="30" as="geometry" />
        </mxCell>
        <object label="Communities" id="Po-LZy7qsp5AbImnbOL2-10">
          <mxCell style="swimlane;fontStyle=0;childLayout=stackLayout;horizontal=1;startSize=26;horizontalStack=0;resizeParent=1;resizeParentMax=0;resizeLast=0;collapsible=1;marginBottom=0;align=center;fontSize=14;" parent="1" vertex="1">
            <mxGeometry x="700" y="160" width="160" height="176" as="geometry">
              <mxRectangle x="700" y="160" width="120" height="30" as="alternateBounds" />
            </mxGeometry>
          </mxCell>
        </object>
        <mxCell id="Po-LZy7qsp5AbImnbOL2-11" value="id" style="text;strokeColor=none;fillColor=none;spacingLeft=4;spacingRight=4;overflow=hidden;rotatable=0;points=[[0,0.5],[1,0.5]];portConstraint=eastwest;fontSize=12;whiteSpace=wrap;html=1;" parent="Po-LZy7qsp5AbImnbOL2-10" vertex="1">
          <mxGeometry y="26" width="160" height="30" as="geometry" />
        </mxCell>
        <mxCell id="Po-LZy7qsp5AbImnbOL2-12" value="name" style="text;strokeColor=none;fillColor=none;spacingLeft=4;spacingRight=4;overflow=hidden;rotatable=0;points=[[0,0.5],[1,0.5]];portConstraint=eastwest;fontSize=12;whiteSpace=wrap;html=1;" parent="Po-LZy7qsp5AbImnbOL2-10" vertex="1">
          <mxGeometry y="56" width="160" height="30" as="geometry" />
        </mxCell>
        <mxCell id="Po-LZy7qsp5AbImnbOL2-13" value="about" style="text;strokeColor=none;fillColor=none;spacingLeft=4;spacingRight=4;overflow=hidden;rotatable=0;points=[[0,0.5],[1,0.5]];portConstraint=eastwest;fontSize=12;whiteSpace=wrap;html=1;" parent="Po-LZy7qsp5AbImnbOL2-10" vertex="1">
          <mxGeometry y="86" width="160" height="30" as="geometry" />
        </mxCell>
        <mxCell id="Po-LZy7qsp5AbImnbOL2-14" value="isPublic" style="text;strokeColor=none;fillColor=none;spacingLeft=4;spacingRight=4;overflow=hidden;rotatable=0;points=[[0,0.5],[1,0.5]];portConstraint=eastwest;fontSize=12;whiteSpace=wrap;html=1;" parent="Po-LZy7qsp5AbImnbOL2-10" vertex="1">
          <mxGeometry y="116" width="160" height="30" as="geometry" />
        </mxCell>
        <mxCell id="Po-LZy7qsp5AbImnbOL2-50" value="creator" style="text;strokeColor=none;fillColor=none;spacingLeft=4;spacingRight=4;overflow=hidden;rotatable=0;points=[[0,0.5],[1,0.5]];portConstraint=eastwest;fontSize=12;whiteSpace=wrap;html=1;" parent="Po-LZy7qsp5AbImnbOL2-10" vertex="1">
          <mxGeometry y="146" width="160" height="30" as="geometry" />
        </mxCell>
        <object label="Roles" id="Po-LZy7qsp5AbImnbOL2-26">
          <mxCell style="swimlane;fontStyle=0;childLayout=stackLayout;horizontal=1;startSize=26;horizontalStack=0;resizeParent=1;resizeParentMax=0;resizeLast=0;collapsible=1;marginBottom=0;align=center;fontSize=14;" parent="1" vertex="1">
            <mxGeometry x="970" y="-66" width="160" height="86" as="geometry" />
          </mxCell>
        </object>
        <mxCell id="Po-LZy7qsp5AbImnbOL2-27" value="id" style="text;strokeColor=none;fillColor=none;spacingLeft=4;spacingRight=4;overflow=hidden;rotatable=0;points=[[0,0.5],[1,0.5]];portConstraint=eastwest;fontSize=12;whiteSpace=wrap;html=1;" parent="Po-LZy7qsp5AbImnbOL2-26" vertex="1">
          <mxGeometry y="26" width="160" height="30" as="geometry" />
        </mxCell>
        <mxCell id="Po-LZy7qsp5AbImnbOL2-28" value="role" style="text;strokeColor=none;fillColor=none;spacingLeft=4;spacingRight=4;overflow=hidden;rotatable=0;points=[[0,0.5],[1,0.5]];portConstraint=eastwest;fontSize=12;whiteSpace=wrap;html=1;" parent="Po-LZy7qsp5AbImnbOL2-26" vertex="1">
          <mxGeometry y="56" width="160" height="30" as="geometry" />
        </mxCell>
        <mxCell id="Po-LZy7qsp5AbImnbOL2-35" value="subscribed to" style="rhombus;whiteSpace=wrap;html=1;fontSize=14;fontStyle=0;startSize=26;" parent="1" vertex="1">
          <mxGeometry x="370" y="217" width="140" height="62" as="geometry" />
        </mxCell>
        <mxCell id="Po-LZy7qsp5AbImnbOL2-37" value="" style="endArrow=none;html=1;rounded=0;entryX=1;entryY=0.5;entryDx=0;entryDy=0;exitX=0;exitY=0.5;exitDx=0;exitDy=0;strokeWidth=4;" parent="1" source="Po-LZy7qsp5AbImnbOL2-13" target="Po-LZy7qsp5AbImnbOL2-35" edge="1">
          <mxGeometry width="50" height="50" relative="1" as="geometry">
            <mxPoint x="560" y="430" as="sourcePoint" />
            <mxPoint x="610" y="380" as="targetPoint" />
          </mxGeometry>
        </mxCell>
        <object label="Templates" id="Po-LZy7qsp5AbImnbOL2-40">
          <mxCell style="swimlane;fontStyle=0;childLayout=stackLayout;horizontal=1;startSize=26;horizontalStack=0;resizeParent=1;resizeParentMax=0;resizeLast=0;collapsible=1;marginBottom=0;align=center;fontSize=14;" parent="1" vertex="1">
            <mxGeometry x="730" y="630" width="160" height="86" as="geometry" />
          </mxCell>
        </object>
        <mxCell id="Po-LZy7qsp5AbImnbOL2-41" value="id" style="text;strokeColor=none;fillColor=none;spacingLeft=4;spacingRight=4;overflow=hidden;rotatable=0;points=[[0,0.5],[1,0.5]];portConstraint=eastwest;fontSize=12;whiteSpace=wrap;html=1;" parent="Po-LZy7qsp5AbImnbOL2-40" vertex="1">
          <mxGeometry y="26" width="160" height="30" as="geometry" />
        </mxCell>
        <mxCell id="Po-LZy7qsp5AbImnbOL2-42" value="name" style="text;strokeColor=none;fillColor=none;spacingLeft=4;spacingRight=4;overflow=hidden;rotatable=0;points=[[0,0.5],[1,0.5]];portConstraint=eastwest;fontSize=12;whiteSpace=wrap;html=1;" parent="Po-LZy7qsp5AbImnbOL2-40" vertex="1">
          <mxGeometry y="56" width="160" height="30" as="geometry" />
        </mxCell>
        <object label="Data_Field_Types" id="Po-LZy7qsp5AbImnbOL2-45">
          <mxCell style="swimlane;fontStyle=0;childLayout=stackLayout;horizontal=1;startSize=26;horizontalStack=0;resizeParent=1;resizeParentMax=0;resizeLast=0;collapsible=1;marginBottom=0;align=center;fontSize=14;" parent="1" vertex="1">
            <mxGeometry x="30" y="529" width="160" height="86" as="geometry" />
          </mxCell>
        </object>
        <mxCell id="Po-LZy7qsp5AbImnbOL2-46" value="id" style="text;strokeColor=none;fillColor=none;spacingLeft=4;spacingRight=4;overflow=hidden;rotatable=0;points=[[0,0.5],[1,0.5]];portConstraint=eastwest;fontSize=12;whiteSpace=wrap;html=1;" parent="Po-LZy7qsp5AbImnbOL2-45" vertex="1">
          <mxGeometry y="26" width="160" height="30" as="geometry" />
        </mxCell>
        <mxCell id="Po-LZy7qsp5AbImnbOL2-47" value="type" style="text;strokeColor=none;fillColor=none;spacingLeft=4;spacingRight=4;overflow=hidden;rotatable=0;points=[[0,0.5],[1,0.5]];portConstraint=eastwest;fontSize=12;whiteSpace=wrap;html=1;" parent="Po-LZy7qsp5AbImnbOL2-45" vertex="1">
          <mxGeometry y="56" width="160" height="30" as="geometry" />
        </mxCell>
        <mxCell id="Po-LZy7qsp5AbImnbOL2-48" value="has" style="rhombus;whiteSpace=wrap;html=1;fontSize=14;fontStyle=0;startSize=26;" parent="1" vertex="1">
          <mxGeometry x="770" y="450" width="80" height="62" as="geometry" />
        </mxCell>
        <mxCell id="Po-LZy7qsp5AbImnbOL2-51" value="" style="endArrow=none;html=1;rounded=0;entryX=0.5;entryY=0;entryDx=0;entryDy=0;exitX=0.5;exitY=1;exitDx=0;exitDy=0;strokeWidth=4;endFill=0;startArrow=classicThin;startFill=1;" parent="1" source="Po-LZy7qsp5AbImnbOL2-48" target="Po-LZy7qsp5AbImnbOL2-40" edge="1">
          <mxGeometry width="50" height="50" relative="1" as="geometry">
            <mxPoint x="570" y="495" as="sourcePoint" />
            <mxPoint x="660" y="503" as="targetPoint" />
          </mxGeometry>
        </mxCell>
        <mxCell id="Po-LZy7qsp5AbImnbOL2-49" value="" style="endArrow=none;html=1;rounded=0;entryX=0.5;entryY=0;entryDx=0;entryDy=0;strokeWidth=4;exitX=0.5;exitY=1;exitDx=0;exitDy=0;" parent="1" source="Po-LZy7qsp5AbImnbOL2-10" target="Po-LZy7qsp5AbImnbOL2-48" edge="1">
          <mxGeometry width="50" height="50" relative="1" as="geometry">
            <mxPoint x="860" y="410" as="sourcePoint" />
            <mxPoint x="635" y="297" as="targetPoint" />
          </mxGeometry>
        </mxCell>
        <mxCell id="Po-LZy7qsp5AbImnbOL2-54" value="" style="swimlane;startSize=0;dashed=1;dashPattern=8 8;" parent="1" vertex="1">
          <mxGeometry x="70" y="120" width="970" height="260" as="geometry">
            <mxRectangle x="70" y="120" width="50" height="40" as="alternateBounds" />
          </mxGeometry>
        </mxCell>
        <mxCell id="Po-LZy7qsp5AbImnbOL2-56" value="assigned to" style="rhombus;whiteSpace=wrap;html=1;fontSize=14;fontStyle=0;startSize=26;" parent="1" vertex="1">
          <mxGeometry x="760" y="-56" width="140" height="62" as="geometry" />
        </mxCell>
        <mxCell id="Po-LZy7qsp5AbImnbOL2-57" value="" style="endArrow=none;html=1;rounded=0;entryX=0;entryY=0.5;entryDx=0;entryDy=0;exitX=1;exitY=0.5;exitDx=0;exitDy=0;" parent="1" source="Po-LZy7qsp5AbImnbOL2-56" target="Po-LZy7qsp5AbImnbOL2-27" edge="1">
          <mxGeometry width="50" height="50" relative="1" as="geometry">
            <mxPoint x="560" y="430" as="sourcePoint" />
            <mxPoint x="610" y="380" as="targetPoint" />
          </mxGeometry>
        </mxCell>
        <mxCell id="Po-LZy7qsp5AbImnbOL2-58" value="" style="endArrow=none;html=1;rounded=0;entryX=0.781;entryY=-0.004;entryDx=0;entryDy=0;exitX=0.5;exitY=1;exitDx=0;exitDy=0;strokeWidth=4;endFill=0;startArrow=classicThin;startFill=1;entryPerimeter=0;" parent="1" source="Po-LZy7qsp5AbImnbOL2-56" target="Po-LZy7qsp5AbImnbOL2-54" edge="1">
          <mxGeometry width="50" height="50" relative="1" as="geometry">
            <mxPoint x="490" y="410" as="sourcePoint" />
            <mxPoint x="520" y="538" as="targetPoint" />
          </mxGeometry>
        </mxCell>
        <object label="Data_Field" id="Po-LZy7qsp5AbImnbOL2-59">
          <mxCell style="swimlane;fontStyle=0;childLayout=stackLayout;horizontal=1;startSize=26;horizontalStack=0;resizeParent=1;resizeParentMax=0;resizeLast=0;collapsible=1;marginBottom=0;align=center;fontSize=14;" parent="1" vertex="1">
            <mxGeometry x="400" y="514" width="160" height="116" as="geometry" />
          </mxCell>
        </object>
        <mxCell id="Po-LZy7qsp5AbImnbOL2-69" value="id" style="text;strokeColor=none;fillColor=none;spacingLeft=4;spacingRight=4;overflow=hidden;rotatable=0;points=[[0,0.5],[1,0.5]];portConstraint=eastwest;fontSize=12;whiteSpace=wrap;html=1;" parent="Po-LZy7qsp5AbImnbOL2-59" vertex="1">
          <mxGeometry y="26" width="160" height="30" as="geometry" />
        </mxCell>
        <mxCell id="Po-LZy7qsp5AbImnbOL2-60" value="name" style="text;strokeColor=none;fillColor=none;spacingLeft=4;spacingRight=4;overflow=hidden;rotatable=0;points=[[0,0.5],[1,0.5]];portConstraint=eastwest;fontSize=12;whiteSpace=wrap;html=1;" parent="Po-LZy7qsp5AbImnbOL2-59" vertex="1">
          <mxGeometry y="56" width="160" height="30" as="geometry" />
        </mxCell>
        <mxCell id="Po-LZy7qsp5AbImnbOL2-62" value="isRequired" style="text;strokeColor=none;fillColor=none;spacingLeft=4;spacingRight=4;overflow=hidden;rotatable=0;points=[[0,0.5],[1,0.5]];portConstraint=eastwest;fontSize=12;whiteSpace=wrap;html=1;" parent="Po-LZy7qsp5AbImnbOL2-59" vertex="1">
          <mxGeometry y="86" width="160" height="30" as="geometry" />
        </mxCell>
        <mxCell id="Po-LZy7qsp5AbImnbOL2-63" value="typeOf" style="rhombus;whiteSpace=wrap;html=1;fontSize=14;fontStyle=0;startSize=26;" parent="1" vertex="1">
          <mxGeometry x="250" y="545" width="80" height="50" as="geometry" />
        </mxCell>
        <mxCell id="Po-LZy7qsp5AbImnbOL2-64" value="" style="endArrow=none;html=1;rounded=0;entryX=0;entryY=0.5;entryDx=0;entryDy=0;exitX=1;exitY=0.5;exitDx=0;exitDy=0;strokeWidth=4;endFill=0;startArrow=classicThin;startFill=1;" parent="1" source="Po-LZy7qsp5AbImnbOL2-63" target="Po-LZy7qsp5AbImnbOL2-60" edge="1">
          <mxGeometry width="50" height="50" relative="1" as="geometry">
            <mxPoint x="350" y="426" as="sourcePoint" />
            <mxPoint x="400" y="585" as="targetPoint" />
          </mxGeometry>
        </mxCell>
        <mxCell id="Po-LZy7qsp5AbImnbOL2-65" value="" style="edgeStyle=orthogonalEdgeStyle;rounded=0;orthogonalLoop=1;jettySize=auto;html=1;strokeColor=default;endArrow=none;endFill=0;entryX=0;entryY=0.5;entryDx=0;entryDy=0;exitX=1;exitY=0.5;exitDx=0;exitDy=0;" parent="1" source="Po-LZy7qsp5AbImnbOL2-46" target="Po-LZy7qsp5AbImnbOL2-63" edge="1">
          <mxGeometry relative="1" as="geometry">
            <mxPoint x="180" y="480" as="sourcePoint" />
            <mxPoint x="280" y="480" as="targetPoint" />
          </mxGeometry>
        </mxCell>
        <mxCell id="Po-LZy7qsp5AbImnbOL2-66" value="composedOf" style="rhombus;whiteSpace=wrap;html=1;fontSize=14;fontStyle=0;startSize=26;" parent="1" vertex="1">
          <mxGeometry x="610" y="537" width="100" height="66" as="geometry" />
        </mxCell>
        <mxCell id="Po-LZy7qsp5AbImnbOL2-67" value="" style="endArrow=none;html=1;rounded=0;entryX=1;entryY=0.5;entryDx=0;entryDy=0;exitX=0;exitY=0;exitDx=0;exitDy=0;strokeWidth=4;" parent="1" source="Po-LZy7qsp5AbImnbOL2-40" target="Po-LZy7qsp5AbImnbOL2-66" edge="1">
          <mxGeometry width="50" height="50" relative="1" as="geometry">
            <mxPoint x="670" y="319" as="sourcePoint" />
            <mxPoint x="480" y="306" as="targetPoint" />
          </mxGeometry>
        </mxCell>
        <mxCell id="Po-LZy7qsp5AbImnbOL2-68" value="" style="endArrow=none;html=1;rounded=0;entryX=1;entryY=0.5;entryDx=0;entryDy=0;exitX=0;exitY=0.5;exitDx=0;exitDy=0;strokeWidth=4;endFill=0;startArrow=classicThin;startFill=1;" parent="1" source="Po-LZy7qsp5AbImnbOL2-66" target="Po-LZy7qsp5AbImnbOL2-60" edge="1">
          <mxGeometry width="50" height="50" relative="1" as="geometry">
            <mxPoint x="445" y="716" as="sourcePoint" />
            <mxPoint x="515" y="701" as="targetPoint" />
          </mxGeometry>
        </mxCell>
        <object label="Posts" id="Po-LZy7qsp5AbImnbOL2-70">
          <mxCell style="swimlane;fontStyle=0;childLayout=stackLayout;horizontal=1;startSize=26;horizontalStack=0;resizeParent=1;resizeParentMax=0;resizeLast=0;collapsible=1;marginBottom=0;align=center;fontSize=14;" parent="1" vertex="1">
            <mxGeometry x="300" y="-190" width="160" height="86" as="geometry">
              <mxRectangle x="300" y="-190" width="120" height="30" as="alternateBounds" />
            </mxGeometry>
          </mxCell>
        </object>
        <mxCell id="Po-LZy7qsp5AbImnbOL2-71" value="id" style="text;strokeColor=none;fillColor=none;spacingLeft=4;spacingRight=4;overflow=hidden;rotatable=0;points=[[0,0.5],[1,0.5]];portConstraint=eastwest;fontSize=12;whiteSpace=wrap;html=1;" parent="Po-LZy7qsp5AbImnbOL2-70" vertex="1">
          <mxGeometry y="26" width="160" height="30" as="geometry" />
        </mxCell>
        <mxCell id="Po-LZy7qsp5AbImnbOL2-72" value="content" style="text;strokeColor=none;fillColor=none;spacingLeft=4;spacingRight=4;overflow=hidden;rotatable=0;points=[[0,0.5],[1,0.5]];portConstraint=eastwest;fontSize=12;whiteSpace=wrap;html=1;" parent="Po-LZy7qsp5AbImnbOL2-70" vertex="1">
          <mxGeometry y="56" width="160" height="30" as="geometry" />
        </mxCell>
        <mxCell id="Po-LZy7qsp5AbImnbOL2-76" value="postedBy" style="rhombus;whiteSpace=wrap;html=1;fontSize=14;fontStyle=0;startSize=26;" parent="1" vertex="1">
          <mxGeometry x="220" y="-30" width="120" height="62" as="geometry" />
        </mxCell>
        <mxCell id="Po-LZy7qsp5AbImnbOL2-77" value="" style="edgeStyle=orthogonalEdgeStyle;rounded=0;orthogonalLoop=1;jettySize=auto;html=1;strokeColor=default;endArrow=none;endFill=0;entryX=0.5;entryY=1;entryDx=0;entryDy=0;exitX=0.5;exitY=0;exitDx=0;exitDy=0;" parent="1" source="Po-LZy7qsp5AbImnbOL2-1" target="Po-LZy7qsp5AbImnbOL2-76" edge="1">
          <mxGeometry relative="1" as="geometry">
            <mxPoint x="280" y="258" as="sourcePoint" />
            <mxPoint x="380" y="258" as="targetPoint" />
          </mxGeometry>
        </mxCell>
        <mxCell id="Po-LZy7qsp5AbImnbOL2-78" value="" style="endArrow=none;html=1;rounded=0;exitX=0.5;exitY=0;exitDx=0;exitDy=0;strokeWidth=4;endFill=0;startArrow=classicThin;startFill=1;entryX=0.5;entryY=1;entryDx=0;entryDy=0;" parent="1" source="Po-LZy7qsp5AbImnbOL2-76" target="Po-LZy7qsp5AbImnbOL2-70" edge="1">
          <mxGeometry width="50" height="50" relative="1" as="geometry">
            <mxPoint x="439.5" y="-30" as="sourcePoint" />
            <mxPoint x="360" y="-100" as="targetPoint" />
          </mxGeometry>
        </mxCell>
        <mxCell id="Po-LZy7qsp5AbImnbOL2-79" value="upvotedBy" style="rhombus;whiteSpace=wrap;html=1;fontSize=14;fontStyle=0;startSize=26;" parent="1" vertex="1">
          <mxGeometry x="40" y="-66" width="120" height="62" as="geometry" />
        </mxCell>
        <mxCell id="Po-LZy7qsp5AbImnbOL2-80" value="" style="edgeStyle=orthogonalEdgeStyle;rounded=0;orthogonalLoop=1;jettySize=auto;html=1;strokeColor=default;endArrow=none;endFill=0;entryX=0;entryY=0.5;entryDx=0;entryDy=0;exitX=0.5;exitY=0;exitDx=0;exitDy=0;" parent="1" source="Po-LZy7qsp5AbImnbOL2-79" target="Po-LZy7qsp5AbImnbOL2-70" edge="1">
          <mxGeometry relative="1" as="geometry">
            <mxPoint x="110" y="-140" as="sourcePoint" />
            <mxPoint x="230" y="-140" as="targetPoint" />
          </mxGeometry>
        </mxCell>
        <mxCell id="Po-LZy7qsp5AbImnbOL2-81" value="" style="edgeStyle=orthogonalEdgeStyle;rounded=0;orthogonalLoop=1;jettySize=auto;html=1;strokeColor=default;endArrow=none;endFill=0;entryX=0.5;entryY=1;entryDx=0;entryDy=0;exitX=0.25;exitY=0;exitDx=0;exitDy=0;" parent="1" source="Po-LZy7qsp5AbImnbOL2-1" target="Po-LZy7qsp5AbImnbOL2-79" edge="1">
          <mxGeometry relative="1" as="geometry">
            <mxPoint x="-10" y="104" as="sourcePoint" />
            <mxPoint x="80" y="6" as="targetPoint" />
          </mxGeometry>
        </mxCell>
        <mxCell id="Po-LZy7qsp5AbImnbOL2-82" value="belongsTo" style="rhombus;whiteSpace=wrap;html=1;fontSize=14;fontStyle=0;startSize=26;" parent="1" vertex="1">
          <mxGeometry x="420" y="-30" width="120" height="62" as="geometry" />
        </mxCell>
        <mxCell id="Po-LZy7qsp5AbImnbOL2-83" value="" style="endArrow=none;html=1;rounded=0;exitX=0.5;exitY=0;exitDx=0;exitDy=0;strokeWidth=4;endFill=0;startArrow=classicThin;startFill=1;entryX=0.5;entryY=1;entryDx=0;entryDy=0;" parent="1" source="Po-LZy7qsp5AbImnbOL2-82" target="Po-LZy7qsp5AbImnbOL2-70" edge="1">
          <mxGeometry width="50" height="50" relative="1" as="geometry">
            <mxPoint x="290" y="-20" as="sourcePoint" />
            <mxPoint x="390" y="-90" as="targetPoint" />
          </mxGeometry>
        </mxCell>
        <mxCell id="Po-LZy7qsp5AbImnbOL2-85" value="" style="edgeStyle=orthogonalEdgeStyle;rounded=0;orthogonalLoop=1;jettySize=auto;html=1;strokeColor=default;endArrow=none;endFill=0;entryX=0;entryY=0;entryDx=0;entryDy=0;exitX=0.5;exitY=1;exitDx=0;exitDy=0;" parent="1" source="Po-LZy7qsp5AbImnbOL2-82" target="Po-LZy7qsp5AbImnbOL2-10" edge="1">
          <mxGeometry relative="1" as="geometry">
            <mxPoint x="500" y="180" as="sourcePoint" />
            <mxPoint x="600" y="180" as="targetPoint" />
          </mxGeometry>
        </mxCell>
        <object label="Comments" id="Po-LZy7qsp5AbImnbOL2-86">
          <mxCell style="swimlane;fontStyle=0;childLayout=stackLayout;horizontal=1;startSize=26;horizontalStack=0;resizeParent=1;resizeParentMax=0;resizeLast=0;collapsible=1;marginBottom=0;align=center;fontSize=14;" parent="1" vertex="1">
            <mxGeometry x="-220" y="-220" width="160" height="86" as="geometry">
              <mxRectangle x="-220" y="-220" width="120" height="30" as="alternateBounds" />
            </mxGeometry>
          </mxCell>
        </object>
        <mxCell id="Po-LZy7qsp5AbImnbOL2-87" value="id" style="text;strokeColor=none;fillColor=none;spacingLeft=4;spacingRight=4;overflow=hidden;rotatable=0;points=[[0,0.5],[1,0.5]];portConstraint=eastwest;fontSize=12;whiteSpace=wrap;html=1;" parent="Po-LZy7qsp5AbImnbOL2-86" vertex="1">
          <mxGeometry y="26" width="160" height="30" as="geometry" />
        </mxCell>
        <mxCell id="Po-LZy7qsp5AbImnbOL2-88" value="content" style="text;strokeColor=none;fillColor=none;spacingLeft=4;spacingRight=4;overflow=hidden;rotatable=0;points=[[0,0.5],[1,0.5]];portConstraint=eastwest;fontSize=12;whiteSpace=wrap;html=1;" parent="Po-LZy7qsp5AbImnbOL2-86" vertex="1">
          <mxGeometry y="56" width="160" height="30" as="geometry" />
        </mxCell>
        <mxCell id="Po-LZy7qsp5AbImnbOL2-89" value="madeBy" style="rhombus;whiteSpace=wrap;html=1;fontSize=14;fontStyle=0;startSize=26;" parent="1" vertex="1">
          <mxGeometry x="-220" y="-40" width="120" height="62" as="geometry" />
        </mxCell>
        <mxCell id="Po-LZy7qsp5AbImnbOL2-90" value="madeFor" style="rhombus;whiteSpace=wrap;html=1;fontSize=14;fontStyle=0;startSize=26;" parent="1" vertex="1">
          <mxGeometry x="70" y="-300" width="120" height="62" as="geometry" />
        </mxCell>
        <mxCell id="Po-LZy7qsp5AbImnbOL2-91" value="" style="endArrow=none;html=1;rounded=0;exitX=0;exitY=0.5;exitDx=0;exitDy=0;strokeWidth=4;endFill=0;startArrow=classicThin;startFill=1;entryX=1;entryY=0.5;entryDx=0;entryDy=0;" parent="1" source="Po-LZy7qsp5AbImnbOL2-90" target="Po-LZy7qsp5AbImnbOL2-87" edge="1">
          <mxGeometry width="50" height="50" relative="1" as="geometry">
            <mxPoint x="-60" y="-60" as="sourcePoint" />
            <mxPoint x="40" y="-134" as="targetPoint" />
          </mxGeometry>
        </mxCell>
        <mxCell id="Po-LZy7qsp5AbImnbOL2-92" value="" style="edgeStyle=orthogonalEdgeStyle;rounded=0;orthogonalLoop=1;jettySize=auto;html=1;strokeColor=default;endArrow=none;endFill=0;entryX=0.5;entryY=0;entryDx=0;entryDy=0;exitX=1;exitY=0.5;exitDx=0;exitDy=0;" parent="1" source="Po-LZy7qsp5AbImnbOL2-90" target="Po-LZy7qsp5AbImnbOL2-70" edge="1">
          <mxGeometry relative="1" as="geometry">
            <mxPoint x="210" y="-228.75" as="sourcePoint" />
            <mxPoint x="410" y="-309.75" as="targetPoint" />
          </mxGeometry>
        </mxCell>
        <mxCell id="Po-LZy7qsp5AbImnbOL2-93" value="" style="endArrow=none;html=1;rounded=0;exitX=0.5;exitY=0;exitDx=0;exitDy=0;strokeWidth=4;endFill=0;startArrow=classicThin;startFill=1;entryX=0.5;entryY=1;entryDx=0;entryDy=0;" parent="1" source="Po-LZy7qsp5AbImnbOL2-89" target="Po-LZy7qsp5AbImnbOL2-86" edge="1">
          <mxGeometry width="50" height="50" relative="1" as="geometry">
            <mxPoint x="20" y="-110" as="sourcePoint" />
            <mxPoint x="-100" y="-20" as="targetPoint" />
          </mxGeometry>
        </mxCell>
        <mxCell id="Po-LZy7qsp5AbImnbOL2-94" value="" style="edgeStyle=orthogonalEdgeStyle;rounded=0;orthogonalLoop=1;jettySize=auto;html=1;strokeColor=default;endArrow=none;endFill=0;entryX=0.5;entryY=1;entryDx=0;entryDy=0;exitX=0;exitY=0.5;exitDx=0;exitDy=0;" parent="1" source="Po-LZy7qsp5AbImnbOL2-5" target="Po-LZy7qsp5AbImnbOL2-89" edge="1">
          <mxGeometry relative="1" as="geometry">
            <mxPoint x="-100" y="130" as="sourcePoint" />
            <mxPoint x="-150" y="-4" as="targetPoint" />
          </mxGeometry>
        </mxCell>
        <mxCell id="Po-LZy7qsp5AbImnbOL2-95" value="compliesTo" style="rhombus;whiteSpace=wrap;html=1;fontSize=14;fontStyle=0;startSize=26;" parent="1" vertex="1">
          <mxGeometry x="560" y="-150" width="120" height="62" as="geometry" />
        </mxCell>
        <mxCell id="Po-LZy7qsp5AbImnbOL2-96" value="" style="endArrow=none;html=1;rounded=0;exitX=0;exitY=0.5;exitDx=0;exitDy=0;strokeWidth=4;endFill=0;startArrow=classicThin;startFill=1;entryX=1;entryY=0.5;entryDx=0;entryDy=0;" parent="1" source="Po-LZy7qsp5AbImnbOL2-95" target="Po-LZy7qsp5AbImnbOL2-71" edge="1">
          <mxGeometry width="50" height="50" relative="1" as="geometry">
            <mxPoint x="650" y="-176" as="sourcePoint" />
            <mxPoint x="550" y="-250" as="targetPoint" />
          </mxGeometry>
        </mxCell>
        <mxCell id="Po-LZy7qsp5AbImnbOL2-97" value="" style="edgeStyle=orthogonalEdgeStyle;rounded=0;orthogonalLoop=1;jettySize=auto;html=1;strokeColor=default;endArrow=none;endFill=0;entryX=0.25;entryY=0;entryDx=0;entryDy=0;exitX=0.5;exitY=1;exitDx=0;exitDy=0;" parent="1" source="Po-LZy7qsp5AbImnbOL2-95" target="Po-LZy7qsp5AbImnbOL2-40" edge="1">
          <mxGeometry relative="1" as="geometry">
            <mxPoint x="740" y="-190" as="sourcePoint" />
            <mxPoint x="960" y="-62" as="targetPoint" />
            <Array as="points">
              <mxPoint x="620" y="430" />
              <mxPoint x="760" y="430" />
              <mxPoint x="760" y="630" />
            </Array>
          </mxGeometry>
        </mxCell>
        <mxCell id="Rw3yv1g6wYXY3hFWMK8n-1" value="hasFields" style="rhombus;whiteSpace=wrap;html=1;fontSize=14;fontStyle=0;startSize=26;" vertex="1" parent="1">
          <mxGeometry x="270" y="400" width="120" height="62" as="geometry" />
        </mxCell>
        <mxCell id="Rw3yv1g6wYXY3hFWMK8n-2" value="" style="endArrow=none;html=1;rounded=0;strokeWidth=4;entryX=0.5;entryY=1;entryDx=0;entryDy=0;exitX=0.5;exitY=0;exitDx=0;exitDy=0;" edge="1" parent="1" source="Rw3yv1g6wYXY3hFWMK8n-1" target="Po-LZy7qsp5AbImnbOL2-70">
          <mxGeometry width="50" height="50" relative="1" as="geometry">
            <mxPoint x="430" y="90" as="sourcePoint" />
            <mxPoint x="370" y="-30" as="targetPoint" />
          </mxGeometry>
        </mxCell>
        <mxCell id="Rw3yv1g6wYXY3hFWMK8n-3" value="" style="edgeStyle=orthogonalEdgeStyle;rounded=0;orthogonalLoop=1;jettySize=auto;html=1;strokeColor=default;endArrow=none;endFill=0;entryX=0.5;entryY=0;entryDx=0;entryDy=0;exitX=0.5;exitY=1;exitDx=0;exitDy=0;" edge="1" parent="1" source="Rw3yv1g6wYXY3hFWMK8n-1" target="Po-LZy7qsp5AbImnbOL2-59">
          <mxGeometry relative="1" as="geometry">
            <mxPoint x="450" y="460" as="sourcePoint" />
            <mxPoint x="510" y="460" as="targetPoint" />
          </mxGeometry>
        </mxCell>
      </root>
    </mxGraphModel>
  </diagram>
</mxfile>
